<svg version="1.0" xmlns="http://www.w3.org/2000/svg"
     class="bishop" viewBox="0 0 128.000000 128.000000"
     preserveAspectRatio="xMidYMid meet">

    <g transform="translate(0.000000,128.000000) scale(0.100000,-0.100000)"
       stroke="none">
        <path d="M617 1262 c-11 -12 -17 -36 -17 -65 0 -32 -4 -47 -13 -47 -7 0 -27
                 -15 -44 -32 -55 -57 -67 -118 -36 -183 l17 -35 128 0 129 0 15 35 c31 76 8
                 159 -58 202 -34 23 -38 30 -38 69 0 66 -46 97 -83 56z"/>
        <path d="M491 858 c-5 -13 -5 -32 -1 -43 7 -18 18 -20 145 -23 145 -3 165 2
                 165 42 0 41 -17 46 -162 46 -135 0 -139 -1 -147 -22z"/>
        <path d="M555 758 c-2 -7 -11 -64 -20 -126 -9 -62 -27 -156 -40 -209 -14 -54
                 -25 -101 -25 -105 0 -5 82 -8 181 -8 168 0 181 1 176 18 -2 9 -16 55 -30 102
                 -14 47 -30 128 -37 180 -6 52 -14 110 -16 128 l-5 32 -90 0 c-63 0 -91 -4 -94
                 -12z"/>
        <path d="M387 262 c-12 -13 -17 -37 -17 -75 l0 -57 286 0 286 0 -4 55 c-8 97
                 -2 95 -288 95 -226 0 -248 -2 -263 -18z"/>
        <path d="M320 90 c-24 -24 -25 -38 -4 -68 15 -22 16 -22 324 -22 308 0 309 0
                 324 22 21 30 20 44 -4 68 -19 19 -33 20 -320 20 -287 0 -301 -1 -320 -20z"/>
    </g>
</svg>
