<svg version="1.0" xmlns="http://www.w3.org/2000/svg"
     class="history" viewBox="0 0 128.000000 128.000000"
     preserveAspectRatio="xMidYMid meet">

    <g transform="translate(0.000000,128.000000) scale(0.100000,-0.100000)"
       stroke="none">
        <path d="M1115 1198 c-41 -15 -126 -70 -172 -112 -38 -34 -39 -34 -150 -38
                 -92 -2 -115 -6 -132 -22 -21 -19 -21 -19 -42 0 -19 17 -41 19 -236 22 -215 3
                 -215 3 -253 -22 -22 -14 -56 -26 -81 -28 l-44 -3 -3 -444 c-2 -349 0 -446 10
                 -453 7 -4 138 -8 290 -8 174 0 279 -4 283 -10 3 -5 28 -10 55 -10 27 0 52 5
                 55 10 4 6 109 10 283 10 152 0 283 4 290 8 10 7 12 104 10 453 l-3 444 -46 3
                 -46 3 1 102 c1 95 0 102 -19 104 -11 1 -33 -3 -50 -9z m45 -67 c0 -47 -36
                 -172 -73 -251 -24 -53 -46 -84 -76 -108 -43 -35 -51 -56 -25 -66 26 -10 -65
                 -119 -113 -135 -21 -7 -44 -15 -51 -18 -33 -13 112 301 201 437 54 81 60 100
                 33 100 -30 0 -190 -281 -250 -440 -13 -35 -26 -59 -28 -54 -3 5 -13 33 -22 62
                 -15 51 -15 54 10 112 23 51 29 58 52 57 24 -2 27 2 35 53 11 65 17 75 104 163
                 64 65 174 134 194 121 5 -3 9 -18 9 -33z m-562 -137 l22 -15 0 -365 0 -365
                 -22 15 c-18 13 -57 16 -215 16 l-193 0 0 365 0 365 193 0 c158 0 197 -3 215
                 -16z m247 -21 c-14 -21 -25 -50 -25 -66 0 -24 -3 -27 -20 -22 -16 5 -23 -1
                 -37 -29 -10 -21 -24 -36 -34 -36 -24 0 -33 -17 -14 -27 14 -8 14 -13 1 -45
                 -13 -31 -14 -42 -2 -82 12 -40 12 -45 -3 -51 -14 -6 -12 -10 10 -28 14 -12 29
                 -32 31 -44 5 -17 1 -22 -18 -25 -31 -4 -33 -20 -5 -33 25 -12 20 -41 -13 -67
                 -40 -32 -9 -39 160 -36 142 3 159 5 162 21 3 15 -8 17 -131 17 l-135 0 7 28 7
                 27 125 5 c108 4 124 7 127 23 3 15 -7 17 -90 18 l-93 0 45 20 c24 11 47 24 50
                 29 3 5 23 10 45 12 28 2 41 8 43 21 3 13 -3 17 -23 17 l-27 0 31 42 c32 44 38
                 64 21 70 -6 2 3 16 20 33 l30 29 0 -257 0 -257 -193 0 c-158 0 -197 -3 -215
                 -16 l-22 -15 0 365 0 365 22 15 c16 11 47 16 106 16 l83 0 -26 -37z m-695
                 -341 c0 -346 -1 -360 -20 -377 -20 -18 -20 -17 -20 346 0 360 2 389 32 389 4
                 0 8 -161 8 -358z m-70 -67 l0 -395 250 0 c243 0 250 -1 250 -20 0 -20 -7 -20
                 -270 -20 l-270 0 0 415 c0 408 0 415 20 415 20 0 20 -7 20 -395z m1090 33 c0
                 -360 0 -361 -20 -343 -19 17 -20 31 -20 321 0 256 3 310 16 344 9 22 18 40 20
                 40 2 0 4 -163 4 -362z m70 -53 l0 -415 -270 0 c-263 0 -270 0 -270 20 0 19 7
                 20 250 20 l250 0 0 395 c0 388 0 395 20 395 20 0 20 -7 20 -415z m-653 -317
                 c16 -17 6 -18 -211 -18 l-229 0 19 21 c18 20 27 20 211 17 167 -3 195 -5 210
                 -20z m528 2 c18 -20 17 -20 -210 -20 -197 0 -226 2 -215 14 17 21 36 23 231
                 25 164 1 177 0 194 -19z m-455 -90 c0 -23 -4 -30 -20 -30 -16 0 -20 7 -20 30
                 0 23 4 30 20 30 16 0 20 -7 20 -30z"/>
        <path d="M303 924 c-7 -3 -13 -12 -13 -20 0 -11 23 -14 116 -14 105 0 115 2
                 112 18 -3 15 -17 17 -103 19 -55 1 -106 -1 -112 -3z"/>
        <path d="M240 805 c0 -13 22 -15 165 -13 102 2 165 7 165 13 0 6 -63 11 -165
                 13 -143 2 -165 0 -165 -13z"/>
        <path d="M240 705 c0 -13 22 -15 165 -13 102 2 165 7 165 13 0 6 -63 11 -165
                 13 -143 2 -165 0 -165 -13z"/>
        <path d="M242 603 c3 -16 20 -18 157 -21 148 -2 191 4 175 29 -3 5 -79 9 -170
                 9 -152 0 -165 -1 -162 -17z"/>
        <path d="M242 503 c3 -16 20 -18 157 -21 148 -2 191 4 175 29 -3 5 -79 9 -170
                 9 -152 0 -165 -1 -162 -17z"/>
        <path d="M242 403 c3 -16 18 -18 168 -18 140 0 165 2 165 15 0 13 -27 15 -168
                 18 -157 2 -168 1 -165 -15z"/>
    </g>
</svg>
