<svg version="1.0" xmlns="http://www.w3.org/2000/svg"
     class="king" viewBox="0 0 128.000000 128.000000"
     preserveAspectRatio="xMidYMid meet">

    <g transform="translate(0.000000,128.000000) scale(0.100000,-0.100000)"
       stroke="none">
        <path d="M590 1163 c-49 -26 -83 -79 -76 -122 7 -43 31 -79 66 -99 33 -19 33
                 -26 -8 -134 -61 -159 -160 -226 -259 -174 -40 20 -109 97 -135 150 l-21 44 21
                 27 c52 65 7 165 -73 165 -92 0 -136 -100 -73 -167 12 -13 28 -23 35 -23 21 0
                 30 -31 73 -265 23 -121 44 -228 46 -237 5 -17 35 -18 454 -18 419 0 449 1 454
                 18 2 9 23 116 46 237 43 234 52 265 73 265 7 0 23 10 35 23 63 67 19 167 -73
                 167 -80 0 -125 -100 -73 -165 l21 -27 -21 -44 c-26 -53 -95 -130 -135 -150
                 -99 -52 -198 15 -259 174 -41 108 -41 115 -8 134 61 35 85 111 51 165 -39 63
                 -104 85 -161 56z"/>
        <path d="M214 253 c-55 -11 -76 -86 -35 -126 22 -22 22 -22 461 -22 439 0 439
                 0 461 22 29 29 29 77 0 106 -21 22 -23 22 -444 23 -232 1 -432 0 -443 -3z"/>
    </g>
</svg>
