<svg version="1.0" xmlns="http://www.w3.org/2000/svg"
     class="knight" viewBox="0 0 128.000000 128.000000"
     preserveAspectRatio="xMidYMid meet">

    <g transform="translate(0.000000,128.000000) scale(0.100000,-0.100000)"
       stroke="none">
        <path d="M486 1188 c-8 -13 -18 -35 -21 -50 -4 -16 -13 -28 -20 -28 -41 0
                 -115 -115 -115 -180 0 -10 -23 -50 -52 -87 -58 -76 -98 -156 -98 -193 0 -35
                 24 -67 68 -89 81 -40 103 -37 170 24 22 19 61 39 93 49 39 11 69 28 99 57 29
                 28 45 38 52 31 21 -21 -4 -68 -69 -127 -180 -165 -183 -169 -183 -213 0 -37
                 -3 -41 -33 -51 -39 -13 -81 -54 -96 -94 -6 -16 -11 -60 -11 -98 l0 -69 415 0
                 415 0 0 70 c0 83 -16 126 -59 163 l-32 26 23 63 c19 54 22 84 23 208 0 248
                 -41 341 -195 440 -49 32 -170 79 -201 80 -9 0 -39 20 -67 45 -56 50 -84 56
                 -106 23z"/>
    </g>
</svg>
