<svg version="1.0" xmlns="http://www.w3.org/2000/svg"
     class="pawn" viewBox="0 0 128.000000 128.000000"
     preserveAspectRatio="xMidYMid meet">

    <g transform="translate(0.000000,128.000000) scale(0.100000,-0.100000)"
       stroke="none">
        <path d="M577 1270 c-80 -24 -137 -104 -137 -191 0 -137 121 -234 247 -200 98
                 26 153 97 153 196 0 143 -126 236 -263 195z"/>
        <path d="M387 812 c-22 -24 -21 -55 1 -75 16 -15 49 -17 254 -17 215 0 236 2
                 251 18 22 24 21 55 -1 75 -16 15 -49 17 -254 17 -215 0 -236 -2 -251 -18z"/>
        <path d="M527 673 c-4 -3 -7 -25 -7 -47 0 -98 -64 -248 -149 -353 l-51 -63
                 320 0 320 0 -55 68 c-94 115 -155 259 -155 368 l0 34 -108 0 c-60 0 -112 -3
                 -115 -7z"/>
        <path d="M197 163 c-4 -3 -7 -42 -7 -85 l0 -78 455 0 455 0 0 69 c0 112 50
                 101 -454 101 -244 0 -446 -3 -449 -7z"/>
    </g>
</svg>
