<svg version="1.0" xmlns="http://www.w3.org/2000/svg"
     class="queen" viewBox="0 0 128.000000 128.000000"
     preserveAspectRatio="xMidYMid meet">

    <g transform="translate(0.000000,128.000000) scale(0.100000,-0.100000)"
       stroke="none">
        <path d="M582 1015 c-46 -38 -48 -109 -5 -142 14 -11 15 -19 4 -66 -39 -177
                 -192 -209 -324 -68 -65 70 -89 121 -76 160 27 76 -80 133 -126 68 -24 -34 -19
                 -75 14 -105 23 -22 43 -71 102 -249 l74 -223 395 0 395 0 74 223 c59 178 79
                 227 102 249 47 44 33 117 -26 132 -30 8 -59 -6 -81 -39 -13 -20 -13 -30 -3
                 -63 11 -37 9 -42 -23 -93 -81 -127 -207 -182 -289 -126 -72 49 -109 151 -74
                 209 28 48 22 97 -14 130 -39 35 -80 36 -119 3z"/>
        <path d="M326 979 c-33 -26 -35 -70 -5 -100 20 -20 21 -26 11 -68 -6 -25 -14
                 -54 -17 -63 -5 -13 3 -22 34 -37 53 -27 110 -27 139 0 l23 20 -51 56 c-27 30
                 -50 60 -50 67 0 7 7 27 15 44 14 28 14 34 1 60 -13 25 -39 41 -67 42 -4 0 -18
                 -9 -33 -21z"/>
        <path d="M887 993 c-9 -2 -24 -18 -33 -34 -13 -27 -13 -33 1 -61 8 -17 15 -37
                 15 -44 0 -7 -23 -37 -50 -67 l-50 -55 26 -21 c35 -27 98 -28 142 -1 25 15 32
                 25 27 38 -3 9 -11 38 -17 63 -10 42 -9 48 11 68 30 30 28 74 -5 100 -27 21
                 -34 23 -67 14z"/>
        <path d="M180 295 l0 -55 460 0 460 0 0 55 0 55 -460 0 -460 0 0 -55z"/>
    </g>
</svg>
