<svg version="1.0" xmlns="http://www.w3.org/2000/svg"
     class="rook" viewBox="0 0 128.000000 128.000000"
     preserveAspectRatio="xMidYMid meet">

    <g transform="translate(0.000000,128.000000) scale(0.100000,-0.100000)"
       stroke="none">
        <path d="M294 1267 c-2 -7 -3 -71 -2 -143 l3 -129 345 0 345 0 3 120 c4 171 7
                 165 -83 165 -85 0 -95 -8 -95 -79 l0 -41 -40 0 -40 0 0 48 c0 26 -5 53 -12 60
                 -16 16 -140 16 -156 0 -7 -7 -12 -34 -12 -60 l0 -48 -40 0 -40 0 0 41 c0 71
                 -10 79 -96 79 -52 0 -76 -4 -80 -13z"/>
        <path d="M350 880 c0 -38 4 -52 19 -60 12 -6 117 -10 271 -10 154 0 259 4 271
                 10 15 8 19 22 19 60 l0 50 -290 0 -290 0 0 -50z"/>
        <path d="M466 748 c-3 -7 -7 -56 -10 -108 -4 -81 -17 -149 -52 -267 l-6 -23
                 242 0 c226 0 242 1 237 18 -32 98 -49 185 -55 277 l-7 110 -173 3 c-133 2
                 -173 0 -176 -10z"/>
        <path d="M297 283 c-4 -3 -7 -26 -7 -49 0 -33 5 -46 19 -54 31 -16 642 -14
                 665 3 13 10 17 24 14 57 l-3 45 -341 3 c-187 1 -343 -1 -347 -5z"/>
        <path d="M242 108 c-16 -16 -16 -80 0 -96 17 -17 779 -17 796 0 20 20 15 86
                 -7 98 -30 15 -773 14 -789 -2z"/>
    </g>
</svg>
